ffmpeg version 4.4.2-0ubuntu0.22.04.1 Copyright (c) 2000-2021 the FFmpeg developers
  built with gcc 11 (Ubuntu 11.2.0-19ubuntu1)
  configuration: --prefix=/usr --extra-version=0ubuntu0.22.04.1 --toolchain=hardened --libdir=/usr/lib/x86_64-linux-gnu --incdir=/usr/include/x86_64-linux-gnu --arch=amd64 --enable-gpl --disable-stripping --enable-gnutls --enable-ladspa --enable-libaom --enable-libass --enable-libbluray --enable-libbs2b --enable-libcaca --enable-libcdio --enable-libcodec2 --enable-libdav1d --enable-libflite --enable-libfontconfig --enable-libfreetype --enable-libfribidi --enable-libgme --enable-libgsm --enable-libjack --enable-libmp3lame --enable-libmysofa --enable-libopenjpeg --enable-libopenmpt --enable-libopus --enable-libpulse --enable-librabbitmq --enable-librubberband --enable-libshine --enable-libsnappy --enable-libsoxr --enable-libspeex --enable-libsrt --enable-libssh --enable-libtheora --enable-libtwolame --enable-libvidstab --enable-libvorbis --enable-libvpx --enable-libwebp --enable-libx265 --enable-libxml2 --enable-libxvid --enable-libzimg --enable-libzmq --enable-libzvbi --enable-lv2 --enable-omx --enable-openal --enable-opencl --enable-opengl --enable-sdl2 --enable-pocketsphinx --enable-librsvg --enable-libmfx --enable-libdc1394 --enable-libdrm --enable-libiec61883 --enable-chromaprint --enable-frei0r --enable-libx264 --enable-shared
  libavutil      56. 70.100 / 56. 70.100
  libavcodec     58.134.100 / 58.134.100
  libavformat    58. 76.100 / 58. 76.100
  libavdevice    58. 13.100 / 58. 13.100
  libavfilter     7.110.100 /  7.110.100
  libswscale      5.  9.100 /  5.  9.100
  libswresample   3.  9.100 /  3.  9.100
  libpostproc    55.  9.100 / 55.  9.100
Input #0, mov,mp4,m4a,3gp,3g2,mj2, from '../videos/52c00c62-0349-4925-8b17-bf99f394e06a.mp4':
  Metadata:
    major_brand     : mp42
    minor_version   : 0
    compatible_brands: mp42mp41
    creation_time   : 2024-04-05T16:28:26.000000Z
  Duration: 00:00:18.09, start: 0.000000, bitrate: 11387 kb/s
  Stream #0:0(eng): Video: h264 (Main) (avc1 / 0x31637661), yuv420p, 1920x1080 [SAR 1:1 DAR 16:9], 11085 kb/s, 60 fps, 60 tbr, 60k tbn, 120 tbc (default)
    Metadata:
      creation_time   : 2024-04-05T16:28:26.000000Z
      handler_name    : ?Mainconcept Video Media Handler
      vendor_id       : [0][0][0][0]
      encoder         : AVC Coding
  Stream #0:1(eng): Audio: aac (LC) (mp4a / 0x6134706D), 48000 Hz, stereo, fltp, 317 kb/s (default)
    Metadata:
      creation_time   : 2024-04-05T16:28:26.000000Z
      handler_name    : #Mainconcept MP4 Sound Media Handler
      vendor_id       : [0][0][0][0]
Stream mapping:
  Stream #0:0 -> #0:0 (h264 (native) -> h264 (libx264))
  Stream #0:1 -> #0:1 (aac (native) -> aac (native))
Press [q] to stop, [?] for help
[libx264 @ 0x55f1be38a7c0] using SAR=1/1
[libx264 @ 0x55f1be38a7c0] using cpu capabilities: MMX2 SSE2Fast SSSE3 SSE4.2 AVX FMA3 BMI2 AVX2
[libx264 @ 0x55f1be38a7c0] profile High, level 4.2, 4:2:0, 8-bit
[libx264 @ 0x55f1be38a7c0] 264 - core 163 r3060 5db6aa6 - H.264/MPEG-4 AVC codec - Copyleft 2003-2021 - http://www.videolan.org/x264.html - options: cabac=1 ref=3 deblock=1:0:0 analyse=0x3:0x113 me=hex subme=7 psy=1 psy_rd=1.00:0.00 mixed_ref=1 me_range=16 chroma_me=1 trellis=1 8x8dct=1 cqm=0 deadzone=21,11 fast_pskip=1 chroma_qp_offset=-2 threads=24 lookahead_threads=4 sliced_threads=0 nr=0 decimate=1 interlaced=0 bluray_compat=0 constrained_intra=0 bframes=3 b_pyramid=2 b_adapt=1 b_bias=0 direct=1 weightb=1 open_gop=0 weightp=2 keyint=250 keyint_min=25 scenecut=40 intra_refresh=0 rc_lookahead=40 rc=crf mbtree=1 crf=23.0 qcomp=0.60 qpmin=0 qpmax=69 qpstep=4 ip_ratio=1.40 aq=1:1.00
Output #0, hls, to '../html/videos/hls/52c00c62-0349-4925-8b17-bf99f394e06a.m3u8':
  Metadata:
    major_brand     : mp42
    minor_version   : 0
    compatible_brands: mp42mp41
    encoder         : Lavf58.76.100
  Stream #0:0(eng): Video: h264, yuv420p(progressive), 1920x1080 [SAR 1:1 DAR 16:9], q=2-31, 60 fps, 90k tbn (default)
    Metadata:
      creation_time   : 2024-04-05T16:28:26.000000Z
      handler_name    : ?Mainconcept Video Media Handler
      vendor_id       : [0][0][0][0]
      encoder         : Lavc58.134.100 libx264
    Side data:
      cpb: bitrate max/min/avg: 0/0/0 buffer size: 0 vbv_delay: N/A
  Stream #0:1(eng): Audio: aac (LC), 48000 Hz, stereo, fltp, 128 kb/s (default)
    Metadata:
      creation_time   : 2024-04-05T16:28:26.000000Z
      handler_name    : #Mainconcept MP4 Sound Media Handler
      vendor_id       : [0][0][0][0]
      encoder         : Lavc58.134.100 aac
frame=    1 fps=0.0 q=0.0 size=N/A time=00:00:00.10 bitrate=N/A speed=2.35x    frame=   58 fps=0.0 q=0.0 size=N/A time=00:00:01.10 bitrate=N/A speed=   2x    frame=   70 fps= 56 q=31.0 size=N/A time=00:00:01.28 bitrate=N/A speed=1.02x    frame=  104 fps= 59 q=31.0 size=N/A time=00:00:01.77 bitrate=N/A speed=1.01x    frame=  133 fps= 59 q=31.0 size=N/A time=00:00:02.28 bitrate=N/A speed=1.01x    frame=  163 fps= 58 q=31.0 size=N/A time=00:00:02.77 bitrate=N/A speed=0.994x    frame=  201 fps= 61 q=31.0 size=N/A time=00:00:03.45 bitrate=N/A speed=1.05x    frame=  235 fps= 60 q=31.0 size=N/A time=00:00:03.96 bitrate=N/A speed=1.01x    frame=  272 fps= 61 q=31.0 size=N/A time=00:00:04.60 bitrate=N/A speed=1.03x    frame=  307 fps= 62 q=31.0 size=N/A time=00:00:05.26 bitrate=N/A speed=1.06x    frame=  361 fps= 66 q=31.0 size=N/A time=00:00:06.12 bitrate=N/A speed=1.12x    frame=  408 fps= 68 q=31.0 size=N/A time=00:00:06.95 bitrate=N/A speed=1.16x    frame=  461 fps= 71 q=31.0 size=N/A time=00:00:07.78 bitrate=N/A speed= 1.2x    frame=  504 fps= 72 q=31.0 size=N/A time=00:00:08.44 bitrate=N/A speed= 1.2x    frame=  543 fps= 72 q=31.0 size=N/A time=00:00:09.10 bitrate=N/A speed=1.21x    frame=  591 fps= 74 q=31.0 size=N/A time=00:00:09.94 bitrate=N/A speed=1.24x    frame=  635 fps= 74 q=31.0 size=N/A time=00:00:10.60 bitrate=N/A speed=1.24x    frame=  681 fps= 75 q=31.0 size=N/A time=00:00:11.45 bitrate=N/A speed=1.27x    frame=  731 fps= 76 q=31.0 size=N/A time=00:00:12.28 bitrate=N/A speed=1.28x    frame=  775 fps= 77 q=31.0 size=N/A time=00:00:13.07 bitrate=N/A speed= 1.3x    [hls @ 0x55f1be386c80] Opening '../html/videos/hls/52c00c62-0349-4925-8b17-bf99f394e06a0.ts' for writing
[hls @ 0x55f1be386c80] Opening '../html/videos/hls/52c00c62-0349-4925-8b17-bf99f394e06a.m3u8.tmp' for writing
frame=  821 fps= 78 q=31.0 size=N/A time=00:00:13.78 bitrate=N/A speed= 1.3x    frame=  865 fps= 78 q=31.0 size=N/A time=00:00:14.57 bitrate=N/A speed=1.32x    frame=  915 fps= 79 q=31.0 size=N/A time=00:00:15.27 bitrate=N/A speed=1.32x    frame=  958 fps= 79 q=31.0 size=N/A time=00:00:16.10 bitrate=N/A speed=1.33x    frame= 1008 fps= 80 q=31.0 size=N/A time=00:00:16.93 bitrate=N/A speed=1.35x    frame= 1055 fps= 81 q=31.0 size=N/A time=00:00:17.64 bitrate=N/A speed=1.35x    [hls @ 0x55f1be386c80] Opening '../html/videos/hls/52c00c62-0349-4925-8b17-bf99f394e06a1.ts' for writing
[hls @ 0x55f1be386c80] Opening '../html/videos/hls/52c00c62-0349-4925-8b17-bf99f394e06a.m3u8.tmp' for writing
frame= 1083 fps= 77 q=-1.0 Lsize=N/A time=00:00:18.04 bitrate=N/A speed=1.28x    
video:22890kB audio:290kB subtitle:0kB other streams:0kB global headers:0kB muxing overhead: unknown
[libx264 @ 0x55f1be38a7c0] frame I:12    Avg QP:24.13  size: 74435
[libx264 @ 0x55f1be38a7c0] frame P:448   Avg QP:26.93  size: 30356
[libx264 @ 0x55f1be38a7c0] frame B:623   Avg QP:29.33  size: 14359
[libx264 @ 0x55f1be38a7c0] consecutive B-frames: 18.0% 10.5% 16.1% 55.4%
[libx264 @ 0x55f1be38a7c0] mb I  I16..4: 15.5% 59.3% 25.2%
[libx264 @ 0x55f1be38a7c0] mb P  I16..4:  8.2% 21.6%  4.8%  P16..4: 21.2%  7.8%  2.9%  0.0%  0.0%    skip:33.5%
[libx264 @ 0x55f1be38a7c0] mb B  I16..4:  2.2%  3.1%  0.6%  B16..8: 30.4%  6.9%  1.2%  direct: 1.8%  skip:53.8%  L0:56.1% L1:41.4% BI: 2.5%
[libx264 @ 0x55f1be38a7c0] 8x8 transform intra:60.4% inter:64.6%
[libx264 @ 0x55f1be38a7c0] coded y,uvDC,uvAC intra: 29.6% 28.6% 8.0% inter: 8.9% 7.0% 0.9%
[libx264 @ 0x55f1be38a7c0] i16 v,h,dc,p: 30% 41% 14% 16%
[libx264 @ 0x55f1be38a7c0] i8 v,h,dc,ddl,ddr,vr,hd,vl,hu: 29% 22% 27%  3%  4%  3%  5%  3%  4%
[libx264 @ 0x55f1be38a7c0] i4 v,h,dc,ddl,ddr,vr,hd,vl,hu: 24% 26% 17%  4%  7%  5%  8%  4%  5%
[libx264 @ 0x55f1be38a7c0] i8c dc,h,v,p: 66% 19% 13%  2%
[libx264 @ 0x55f1be38a7c0] Weighted P-Frames: Y:1.1% UV:0.7%
[libx264 @ 0x55f1be38a7c0] ref P L0: 68.7% 10.1% 14.9%  6.2%  0.1%
[libx264 @ 0x55f1be38a7c0] ref B L0: 87.3% 10.5%  2.2%
[libx264 @ 0x55f1be38a7c0] ref B L1: 96.4%  3.6%
[libx264 @ 0x55f1be38a7c0] kb/s:10388.38
[aac @ 0x55f1be3bf8c0] Qavg: 246.409
